<svg xmlns="http://www.w3.org/2000/svg" viewBox="0 0 64 64" role="img" aria-label="Поїзд Кукушка">
  <rect width="64" height="64" rx="14" fill="#1A4731"/>
  <circle cx="48" cy="14" r="3.5" fill="#F2F7EF" opacity=".78"/>
  <circle cx="42" cy="11" r="2.5" fill="#F2F7EF" opacity=".55"/>
  <path d="M13 51h39" fill="none" stroke="#E9A227" stroke-width="4" stroke-linecap="round"/>
  <path d="M18 35h28a8 8 0 0 1 8 8v1H12v-3a6 6 0 0 1 6-6Z" fill="#E9A227"/>
  <path d="M18 28h25a7 7 0 0 1 7 7v2H16v-7a2 2 0 0 1 2-2Z" fill="#F2F7EF"/>
  <path d="M23 18h16a6 6 0 0 1 6 6v13H23V18Z" fill="#52A875"/>
  <path d="M28 23h10v9H28z" fill="#F2F7EF"/>
  <path d="M44 22h6v13h-6z" fill="#E9A227"/>
  <path d="M43 19h8v5h-8z" fill="#F2F7EF"/>
  <circle cx="22" cy="45" r="7" fill="#123827"/>
  <circle cx="42" cy="45" r="7" fill="#123827"/>
  <circle cx="22" cy="45" r="3" fill="#F2F7EF"/>
  <circle cx="42" cy="45" r="3" fill="#F2F7EF"/>
  <path d="M20 37h18" fill="none" stroke="#1A4731" stroke-width="3" stroke-linecap="round" opacity=".45"/>
</svg>
